<svg fill="#284a41" xmlns="http://www.w3.org/2000/svg" xmlns:xlink="http://www.w3.org/1999/xlink" viewBox="0 0 18 18">
    <path d="M8.996 5.016c-.55 0-.994-.445-.995-.994v-2.03C8 1.255 7.404.66 6.67.66c-.297.003-.583.107-.812.296-.877.694-2.057.87-3.098.462C1.74 1.01.583 1.5.173 2.518c-.332.822-.08 1.764.62 2.31.874.698 1.31 1.807 1.148 2.915-.112.72.38 1.393 1.098 1.506.302.047.61-.013.875-.168l1.753-1.016c.478-.276 1.09-.113 1.366.365.276.48.114 1.09-.365 1.365l-1.76 1.01c-.635.37-.853 1.185-.485 1.823.15.256.384.452.663.555 1.04.414 1.78 1.35 1.947 2.456.157 1.084 1.164 1.837 2.25 1.68.87-.127 1.553-.81 1.68-1.68.166-1.108.907-2.043 1.947-2.457.278-.104.513-.3.665-.555.362-.638.145-1.45-.486-1.823l-1.76-1.01c-.47-.283-.623-.897-.34-1.37.277-.46.867-.618 1.338-.36l1.753 1.016c.637.367 1.45.15 1.82-.486.146-.258.203-.558.158-.852-.167-1.108.272-2.22 1.148-2.915.865-.675 1.02-1.922.347-2.788-.546-.7-1.49-.954-2.312-.62-1.038.407-2.216.232-3.09-.462-.563-.46-1.393-.378-1.854.186-.195.237-.3.536-.297.844v2.03c0 .55-.447.997-.996.997h-.008z" />
</svg>